<svg width="388" height="422" viewBox="0 0 388 422" fill="none" xmlns="http://www.w3.org/2000/svg">
<path d="M174.296 94.9759C184.452 109.077 189.202 124.8 188.733 138.783C188.263 152.764 182.59 164.915 171.999 172.125C161.408 179.335 147.724 180.362 134.049 176.008C120.373 171.655 106.801 161.937 96.6453 147.836C86.4894 133.735 81.7388 118.013 82.2084 104.03C82.6779 90.0481 88.3508 77.8974 98.9419 70.6876C109.533 63.4778 123.217 62.4508 136.892 66.8039C150.568 71.1574 164.14 80.8749 174.296 94.9759Z" stroke="#1DA0F1" stroke-width="3"/>
<line y1="-0.25" x2="96.9354" y2="-0.25" transform="matrix(-0.826639 0.562733 -0.584424 -0.811448 176.003 94.781)" stroke="#1DA0F1" stroke-width="0.5"/>
<line y1="-0.25" x2="128.008" y2="-0.25" transform="matrix(0.584424 0.811448 -0.826639 0.562733 98.0653 69.4705)" stroke="#1DA0F1" stroke-width="0.5"/>
<line y1="-0.25" x2="124.807" y2="-0.25" transform="matrix(0.584424 0.811448 -0.826639 0.562733 92.3229 75.3146)" stroke="#1DA0F1" stroke-width="0.5"/>
<line y1="-0.25" x2="124.807" y2="-0.25" transform="matrix(-0.584424 -0.811448 0.826639 -0.562733 178.618 167.498)" stroke="#1DA0F1" stroke-width="0.5"/>
<line y1="-0.25" x2="120.01" y2="-0.25" transform="matrix(0.590012 0.807616 -0.822736 0.568114 86.3802 82.2625)" stroke="#1DA0F1" stroke-width="0.5"/>
<line y1="-0.25" x2="120.01" y2="-0.25" transform="matrix(-0.590012 -0.807616 0.822736 -0.568114 184.561 160.55)" stroke="#1DA0F1" stroke-width="0.5"/>
<line y1="-0.25" x2="108.006" y2="-0.25" transform="matrix(0.591136 0.806839 -0.821945 0.569196 82.7755 92.4563)" stroke="#1DA0F1" stroke-width="0.5"/>
<line y1="-0.25" x2="108.006" y2="-0.25" transform="matrix(-0.591136 -0.806839 0.821945 -0.569196 188.166 150.356)" stroke="#1DA0F1" stroke-width="0.5"/>
<line y1="-0.25" x2="89.6053" y2="-0.25" transform="matrix(0.591919 0.806296 -0.821392 0.56995 81.041 105.247)" stroke="#1DA0F1" stroke-width="0.5"/>
<line y1="-0.25" x2="89.6053" y2="-0.25" transform="matrix(-0.591919 -0.806296 0.821392 -0.56995 189.9 137.565)" stroke="#1DA0F1" stroke-width="0.5"/>
<line y1="-0.25" x2="64.0038" y2="-0.25" transform="matrix(0.584424 0.811448 -0.826639 0.562733 82.5122 119.725)" stroke="#1DA0F1" stroke-width="0.5"/>
<line y1="-0.25" x2="64.0038" y2="-0.25" transform="matrix(-0.584424 -0.811448 0.826639 -0.562733 188.429 123.087)" stroke="#1DA0F1" stroke-width="0.5"/>
<line y1="-0.25" x2="95.3198" y2="-0.25" transform="matrix(0.826639 -0.562733 0.584424 0.811448 91.865 142.383)" stroke="#1DA0F1" stroke-width="0.5"/>
<line y1="-0.25" x2="95.3198" y2="-0.25" transform="matrix(-0.826639 0.562733 -0.584424 -0.811448 179.076 100.429)" stroke="#1DA0F1" stroke-width="0.5"/>
<line y1="-0.25" x2="92.8964" y2="-0.25" transform="matrix(0.826639 -0.562733 0.584424 0.811448 87.6239 135.116)" stroke="#1DA0F1" stroke-width="0.5"/>
<line y1="-0.25" x2="92.8964" y2="-0.25" transform="matrix(-0.826639 0.562733 -0.584424 -0.811448 183.317 107.697)" stroke="#1DA0F1" stroke-width="0.5"/>
<line y1="-0.25" x2="84.0107" y2="-0.25" transform="matrix(0.826639 -0.562733 0.584424 0.811448 82.5122 119.725)" stroke="#1DA0F1" stroke-width="0.5"/>
<line y1="-0.25" x2="84.0107" y2="-0.25" transform="matrix(-0.826639 0.562733 -0.584424 -0.811448 188.429 123.087)" stroke="#1DA0F1" stroke-width="0.5"/>
<line y1="-0.25" x2="88.8574" y2="-0.25" transform="matrix(0.826639 -0.562733 0.584424 0.811448 84.9515 127.26)" stroke="#1DA0F1" stroke-width="0.5"/>
<line y1="-0.25" x2="88.8574" y2="-0.25" transform="matrix(-0.826639 0.562733 -0.584424 -0.811448 185.99 115.552)" stroke="#1DA0F1" stroke-width="0.5"/>
<line y1="-0.25" x2="68.6626" y2="-0.25" transform="matrix(0.826639 -0.562733 0.584424 0.811448 81.2334 104.149)" stroke="#1DA0F1" stroke-width="0.5"/>
<line y1="-0.25" x2="68.6626" y2="-0.25" transform="matrix(-0.826639 0.562733 -0.584424 -0.811448 189.708 138.664)" stroke="#1DA0F1" stroke-width="0.5"/>
<line y1="-0.25" x2="75.9327" y2="-0.25" transform="matrix(0.826639 -0.562733 0.584424 0.811448 81.4048 111.283)" stroke="#1DA0F1" stroke-width="0.5"/>
<line y1="-0.25" x2="75.9327" y2="-0.25" transform="matrix(-0.826639 0.562733 -0.584424 -0.811448 189.536 131.53)" stroke="#1DA0F1" stroke-width="0.5"/>
<line y1="-0.25" x2="50.8911" y2="-0.25" transform="matrix(0.826639 -0.562733 0.584424 0.811448 82.7755 92.4563)" stroke="#1DA0F1" stroke-width="0.5"/>
<line y1="-0.25" x2="50.8911" y2="-0.25" transform="matrix(-0.826639 0.562733 -0.584424 -0.811448 188.166 150.356)" stroke="#1DA0F1" stroke-width="0.5"/>
<line y1="-0.25" x2="30.6962" y2="-0.25" transform="matrix(0.826639 -0.562733 0.584424 0.811448 87.7158 81.3533)" stroke="#1DA0F1" stroke-width="0.5"/>
<line y1="-0.25" x2="30.6962" y2="-0.25" transform="matrix(-0.826639 0.562733 -0.584424 -0.811448 183.225 161.459)" stroke="#1DA0F1" stroke-width="0.5"/>
<path d="M181.456 182.299C181.591 183.808 180.011 184.884 178.599 184.244L165.772 178.429C164.35 177.784 164.167 175.884 165.442 175.016L177.036 167.123C178.312 166.255 180.085 167.072 180.222 168.591L181.456 182.299Z" fill="#1DA0F1"/>
<path d="M172.075 177.757L177.417 174.12L233.525 252.024L228.183 255.661L172.075 177.757Z" fill="#1DA0F1"/>
<ellipse cx="8.07795" cy="10.8006" rx="8.07795" ry="10.8006" transform="matrix(0.826639 -0.562733 0.584424 0.811448 222.306 255.791)" fill="#1DA0F1"/>
<ellipse cx="8.07795" cy="10.8006" rx="8.07795" ry="10.8006" transform="matrix(0.826639 -0.562733 0.584424 0.811448 250.36 294.743)" fill="#1DA0F1"/>
<rect width="16.1559" height="49.6029" transform="matrix(0.826639 -0.562733 0.584424 0.811448 227.917 263.582)" fill="#1DA0F1"/>
<path d="M300.755 145.64C290.599 159.741 277.027 169.459 263.351 173.812C249.677 178.165 235.992 177.139 225.401 169.929C214.81 162.719 209.137 150.568 208.667 136.586C208.198 122.604 212.949 106.881 223.104 92.7798C233.26 78.6788 246.832 68.9613 260.508 64.6078C274.183 60.2547 287.867 61.2817 298.458 68.4915C309.049 75.7014 314.722 87.852 315.192 101.834C315.662 115.817 310.911 131.539 300.755 145.64Z" stroke="#1DA0F1" stroke-width="3"/>
<line y1="-0.25" x2="96.9354" y2="-0.25" transform="matrix(-0.826639 -0.562733 0.584424 -0.811448 301.527 147.134)" stroke="#1DA0F1" stroke-width="0.5"/>
<line y1="-0.25" x2="128.008" y2="-0.25" transform="matrix(-0.584424 0.811448 -0.826639 -0.562733 299.335 67.2744)" stroke="#1DA0F1" stroke-width="0.5"/>
<line y1="-0.25" x2="124.807" y2="-0.25" transform="matrix(-0.584424 0.811448 -0.826639 -0.562733 291.722 64.027)" stroke="#1DA0F1" stroke-width="0.5"/>
<line y1="-0.25" x2="124.807" y2="-0.25" transform="matrix(0.584424 -0.811448 0.826639 0.562733 232.137 174.393)" stroke="#1DA0F1" stroke-width="0.5"/>
<line y1="-0.25" x2="120.01" y2="-0.25" transform="matrix(-0.578809 0.815243 -0.830505 -0.557327 282.974 60.9743)" stroke="#1DA0F1" stroke-width="0.5"/>
<line y1="-0.25" x2="120.01" y2="-0.25" transform="matrix(0.578809 -0.815243 0.830505 0.557327 240.885 177.446)" stroke="#1DA0F1" stroke-width="0.5"/>
<line y1="-0.25" x2="108.006" y2="-0.25" transform="matrix(-0.577674 0.816003 -0.83128 -0.556234 271.889 61.1676)" stroke="#1DA0F1" stroke-width="0.5"/>
<line y1="-0.25" x2="108.006" y2="-0.25" transform="matrix(0.577674 -0.816003 0.83128 0.556234 251.971 177.253)" stroke="#1DA0F1" stroke-width="0.5"/>
<line y1="-0.25" x2="89.6053" y2="-0.25" transform="matrix(-0.576881 0.816533 -0.83182 -0.55547 258.932 63.9576)" stroke="#1DA0F1" stroke-width="0.5"/>
<line y1="-0.25" x2="89.6053" y2="-0.25" transform="matrix(0.576881 -0.816533 0.83182 0.55547 264.927 174.463)" stroke="#1DA0F1" stroke-width="0.5"/>
<line y1="-0.25" x2="64.0038" y2="-0.25" transform="matrix(-0.584424 0.811448 -0.826639 -0.562733 245.442 70.2536)" stroke="#1DA0F1" stroke-width="0.5"/>
<line y1="-0.25" x2="64.0038" y2="-0.25" transform="matrix(0.584424 -0.811448 0.826639 0.562733 278.418 168.167)" stroke="#1DA0F1" stroke-width="0.5"/>
<line y1="-0.25" x2="95.3198" y2="-0.25" transform="matrix(0.826639 0.562733 -0.584424 0.811448 226.74 86.5475)" stroke="#1DA0F1" stroke-width="0.5"/>
<line y1="-0.25" x2="95.3198" y2="-0.25" transform="matrix(-0.826639 -0.562733 0.584424 -0.811448 297.119 151.873)" stroke="#1DA0F1" stroke-width="0.5"/>
<line y1="-0.25" x2="92.8964" y2="-0.25" transform="matrix(0.826639 0.562733 -0.584424 0.811448 232.314 80.1874)" stroke="#1DA0F1" stroke-width="0.5"/>
<line y1="-0.25" x2="92.8964" y2="-0.25" transform="matrix(-0.826639 -0.562733 0.584424 -0.811448 291.545 158.233)" stroke="#1DA0F1" stroke-width="0.5"/>
<line y1="-0.25" x2="84.0107" y2="-0.25" transform="matrix(0.826639 0.562733 -0.584424 0.811448 245.442 70.2536)" stroke="#1DA0F1" stroke-width="0.5"/>
<line y1="-0.25" x2="84.0107" y2="-0.25" transform="matrix(-0.826639 -0.562733 0.584424 -0.811448 278.418 168.167)" stroke="#1DA0F1" stroke-width="0.5"/>
<line y1="-0.25" x2="88.8574" y2="-0.25" transform="matrix(0.826639 0.562733 -0.584424 0.811448 238.993 75.0592)" stroke="#1DA0F1" stroke-width="0.5"/>
<line y1="-0.25" x2="88.8574" y2="-0.25" transform="matrix(-0.826639 -0.562733 0.584424 -0.811448 284.867 163.361)" stroke="#1DA0F1" stroke-width="0.5"/>
<line y1="-0.25" x2="68.6626" y2="-0.25" transform="matrix(0.826639 0.562733 -0.584424 0.811448 260.06 63.7577)" stroke="#1DA0F1" stroke-width="0.5"/>
<line y1="-0.25" x2="68.6626" y2="-0.25" transform="matrix(-0.826639 -0.562733 0.584424 -0.811448 263.8 174.663)" stroke="#1DA0F1" stroke-width="0.5"/>
<line y1="-0.25" x2="75.9327" y2="-0.25" transform="matrix(0.826639 0.562733 -0.584424 0.811448 253.223 66.3544)" stroke="#1DA0F1" stroke-width="0.5"/>
<line y1="-0.25" x2="75.9327" y2="-0.25" transform="matrix(-0.826639 -0.562733 0.584424 -0.811448 270.637 172.066)" stroke="#1DA0F1" stroke-width="0.5"/>
<line y1="-0.25" x2="50.8911" y2="-0.25" transform="matrix(0.826639 0.562733 -0.584424 0.811448 271.889 61.1676)" stroke="#1DA0F1" stroke-width="0.5"/>
<line y1="-0.25" x2="50.8911" y2="-0.25" transform="matrix(-0.826639 -0.562733 0.584424 -0.811448 251.971 177.253)" stroke="#1DA0F1" stroke-width="0.5"/>
<line y1="-0.25" x2="30.6962" y2="-0.25" transform="matrix(0.826639 0.562733 -0.584424 0.811448 284.31 61.8835)" stroke="#1DA0F1" stroke-width="0.5"/>
<line y1="-0.25" x2="30.6962" y2="-0.25" transform="matrix(-0.826639 -0.562733 0.584424 -0.811448 239.55 176.537)" stroke="#1DA0F1" stroke-width="0.5"/>
<path d="M218.801 182.048C217.39 182.688 215.809 181.611 215.945 180.103L217.178 166.395C217.315 164.876 219.088 164.059 220.364 164.927L231.958 172.82C233.234 173.688 233.05 175.588 231.629 176.232L218.801 182.048Z" fill="#1DA0F1"/>
<path d="M192.831 209.996L196.091 215.544L169.217 253.464L163.875 249.828L192.831 209.996Z" fill="#1DA0F1"/>
<path d="M218.171 175.451L223.513 179.088L202.882 206.36L200.184 200.425L218.171 175.451Z" fill="#1DA0F1"/>
<ellipse cx="8.07795" cy="10.8006" rx="8.07795" ry="10.8006" transform="matrix(0.826639 0.562733 -0.584424 0.811448 161.739 244.504)" fill="#1DA0F1"/>
<ellipse cx="8.07795" cy="10.8006" rx="8.07795" ry="10.8006" transform="matrix(0.826639 0.562733 -0.584424 0.811448 133.685 283.456)" fill="#1DA0F1"/>
<rect width="16.1559" height="49.6029" transform="matrix(0.826639 0.562733 -0.584424 0.811448 156.128 252.294)" fill="#1DA0F1"/>
<path d="M72.096 395C71.328 395 70.688 394.728 70.176 394.184L60.576 384.584C60.032 384.072 59.76 383.432 59.76 382.664V332.216C59.76 331.416 60.16 331.016 60.96 331.016H74.544C75.344 331.016 75.744 331.416 75.744 332.216V382.136H86.496V332.216C86.496 331.416 86.896 331.016 87.696 331.016H101.28C102.08 331.016 102.48 331.416 102.48 332.216V382.664C102.48 383.432 102.208 384.072 101.664 384.584L92.064 394.184C91.552 394.728 90.912 395 90.144 395H72.096ZM126.377 395C125.641 395 125.001 394.728 124.457 394.184L114.857 384.584C114.313 384.072 114.041 383.432 114.041 382.664V343.304C114.041 342.568 114.313 341.928 114.857 341.384L124.457 331.784C125.001 331.272 125.641 331.016 126.377 331.016H145.241C146.009 331.016 146.649 331.272 147.161 331.784L156.761 341.384C157.305 341.928 157.577 342.568 157.577 343.304V382.664C157.577 383.432 157.305 384.072 156.761 384.584L147.161 394.184C146.649 394.728 146.009 395 145.241 395H126.377ZM132.041 382.184H139.577C140.921 382.184 141.593 381.288 141.593 379.496V346.52C141.593 344.696 140.921 343.784 139.577 343.784H132.041C130.729 343.784 130.073 344.696 130.073 346.52V379.496C130.073 381.288 130.729 382.184 132.041 382.184ZM147.065 338.936C146.105 338.936 145.353 338.696 144.809 338.216C144.297 337.704 144.041 337.112 144.041 336.44V332.216C144.041 331.416 144.441 331.016 145.241 331.016H156.521V326.264C156.521 325.464 156.921 325.064 157.721 325.064H164.201C165.001 325.064 165.401 325.464 165.401 326.264V333.896C165.401 334.504 165.209 335 164.825 335.384L162.089 338.264C161.737 338.712 161.257 338.936 160.649 338.936H147.065ZM135.497 407.096C134.121 407.096 132.969 406.632 132.041 405.704C131.145 404.808 130.697 403.672 130.697 402.296C130.697 400.888 131.145 399.72 132.041 398.792C132.969 397.864 134.121 397.4 135.497 397.4C136.905 397.4 138.057 397.864 138.953 398.792C139.849 399.72 140.297 400.888 140.297 402.296C140.297 403.672 139.849 404.808 138.953 405.704C138.057 406.632 136.905 407.096 135.497 407.096ZM179.873 395C179.073 395 178.673 394.6 178.673 393.8V343.784H170.273C169.473 343.784 169.073 343.384 169.073 342.584V332.216C169.073 331.416 169.473 331.016 170.273 331.016H203.057C203.857 331.016 204.257 331.416 204.257 332.216V342.584C204.257 343.384 203.857 343.784 203.057 343.784H194.657V393.8C194.657 394.6 194.257 395 193.457 395H179.873ZM232.241 395C231.441 395 231.041 394.6 231.041 393.8V332.216C231.041 331.416 231.441 331.016 232.241 331.016H259.505C260.273 331.016 260.913 331.272 261.425 331.784L271.025 341.384C271.569 341.928 271.841 342.568 271.841 343.304V393.8C271.841 394.6 271.441 395 270.641 395H257.057C256.257 395 255.857 394.6 255.857 393.8V343.784H247.025V393.8C247.025 394.6 246.625 395 245.825 395H232.241ZM284.554 395C283.754 395 283.354 394.6 283.354 393.8V332.216C283.354 331.416 283.754 331.016 284.554 331.016H318.01C318.81 331.016 319.21 331.416 319.21 332.216V342.584C319.21 343.384 318.81 343.784 318.01 343.784H299.338V357.416H316.378C317.178 357.416 317.578 357.816 317.578 358.616V367.4C317.578 368.2 317.178 368.6 316.378 368.6H299.338V382.184H318.01C318.81 382.184 319.21 382.584 319.21 383.384V393.8C319.21 394.6 318.81 395 318.01 395H284.554ZM306.922 328.664L294.538 323.48C293.93 323.16 293.754 322.728 294.01 322.184L296.746 316.472C297.034 315.704 297.466 315.496 298.042 315.848L309.37 323.192C309.946 323.576 310.122 324.056 309.898 324.632L308.218 328.232C307.994 328.808 307.562 328.952 306.922 328.664Z" fill="black"/>
</svg>
